<?xml version="1.0" encoding="utf-8"?>
<!-- Generator: Adobe Illustrator 27.5.0, SVG Export Plug-In . SVG Version: 6.00 Build 0)  -->
<svg version="1.1" xmlns="http://www.w3.org/2000/svg" xmlns:xlink="http://www.w3.org/1999/xlink" x="0px" y="0px"
	 viewBox="0 0 175.5 176.1" style="enable-background:new 0 0 175.5 176.1;" xml:space="preserve">
<style type="text/css">
	.st0{fill:#0A141E;}
	.st1{fill:#EDEDED;}
</style>
<g id="Layer_2">
</g>
<g id="Layer_1">
	<path class="st0" d="M86.6,0C40.9,0,0,37.5,0,88.2c0,5.1,0.4,10,1.2,14.8l41.1-18.3c1.4-26,19.8-45,45-45
		c12.3,0,22.9,4.1,30.7,11.1l38.7-17.3C140.4,13,115,0,86.6,0z M174.2,73.2l-41.1,18.3c-1.4,27.5-21,44.9-45.8,44.9
		c-12.1,0-22.4-4-30.1-11l-38.8,17.3c15.9,20.5,40.5,33.4,68.6,33.4c51,0,88.5-39.7,88.5-88.2C175.5,82.9,175.1,77.9,174.2,73.2z"/>
</g>
</svg>
